HIERARCHY
ROOT Hips
{
  OFFSET 44.0924 100.728 -271.026
  CHANNELS 6 Xposition Yposition Zposition Zrotation Xrotation Yrotation
  JOINT ToSpine
  {
    OFFSET -0.0105055 1.38907 -7.13956
    CHANNELS 3 Zrotation Xrotation Yrotation
    JOINT Spine
    {
      OFFSET 0.0105055 10 1
      CHANNELS 3 Zrotation Xrotation Yrotation
      JOINT Spine1
      {
        OFFSET 0 12 1.60637
        CHANNELS 3 Zrotation Xrotation Yrotation
        JOINT Neck
        {
          OFFSET 0 27 2.26658
          CHANNELS 3 Zrotation Xrotation Yrotation
          JOINT Head
          {
            OFFSET 0 9 2.12705
            CHANNELS 3 Zrotation Xrotation Yrotation
            End Site
            {
              OFFSET 0 11 2
            }
          }
        }
        JOINT LeftShoulder
        {
          OFFSET 8 19.6109 2.86452
          CHANNELS 3 Zrotation Xrotation Yrotation
          JOINT LeftArm
          {
            OFFSET 12 1 0.681055
            CHANNELS 3 Zrotation Xrotation Yrotation
            JOINT LeftForeArm
            {
              OFFSET 19 0 -1.52608
              CHANNELS 3 Zrotation Xrotation Yrotation
              JOINT LeftHand
              {
                OFFSET 23 0 0
                CHANNELS 3 Zrotation Xrotation Yrotation
                End Site
                {
                  OFFSET 10 0 0
                }
              }
            }
          }
        }
        JOINT RightShoulder
        {
          OFFSET -8 19.6109 2.86452
          CHANNELS 3 Zrotation Xrotation Yrotation
          JOINT RightArm
          {
            OFFSET -12 1 0.681055
            CHANNELS 3 Zrotation Xrotation Yrotation
            JOINT RightForeArm
            {
              OFFSET -19 0 -1.52608
              CHANNELS 3 Zrotation Xrotation Yrotation
              JOINT RightHand
              {
                OFFSET -23 0 0
                CHANNELS 3 Zrotation Xrotation Yrotation
                End Site
                {
                  OFFSET -10 0 0
                }
              }
            }
          }
        }
      }
    }
  }
  JOINT LeftUpLeg
  {
    OFFSET 9 -7.17245 0
    CHANNELS 3 Zrotation Xrotation Yrotation
    JOINT LeftLeg
    {
      OFFSET 0 -44.1113 0
      CHANNELS 3 Zrotation Xrotation Yrotation
      JOINT LeftFoot
      {
        OFFSET 0 -36.1829 0
        CHANNELS 3 Zrotation Xrotation Yrotation
        JOINT LeftToeBase
        {
          OFFSET 0 -4.84184 13
          CHANNELS 3 Zrotation Xrotation Yrotation
          End Site
          {
            OFFSET 0 1 6
          }
        }
      }
    }
  }
  JOINT RightUpLeg
  {
    OFFSET -9 -7.17245 0
    CHANNELS 3 Zrotation Xrotation Yrotation
    JOINT RightLeg
    {
      OFFSET 0 -44.0551 0
      CHANNELS 3 Zrotation Xrotation Yrotation
      JOINT RightFoot
      {
        OFFSET 0 -36.1469 0
        CHANNELS 3 Zrotation Xrotation Yrotation
        JOINT RightToeBase
        {
          OFFSET 0 -4.92256 13
          CHANNELS 3 Zrotation Xrotation Yrotation
          End Site
          {
            OFFSET 0 1 6
          }
        }
      }
    }
  }
}
MOTION
Frames:	7
Frame Time:	0.0333333
15.5849 93.9755 -5.35045 -0.547104 -5.12421 -46.2599 0 0 0 17.6708 6.0057 6.11781 -17.9211 4.68237 10.623 3.77347 7.87084 -2.80572 3.50653 -4.35201 -2.1035 -35.3271 3.15807 -4.11398 -48.3106 10.4675 15.0886 -3.8691 -18.4806 -7.52212 -11.1276 0.0651001 -0.670346 23.7213 6.42688 17.7088 40.3327 11.1911 11.7428 -1.29858 2.59114 26.4076 2.25995 0.103168 5.21926 -1.99255 -21.5465 0.348105 -2.84055 9.36398 -18.9122 -3.79205 -3.71875 -0.11514 0.0963174 -4.53377 0.89571 1.73371 16.3507 -8.17338 -0.142475 19.9495 33.6019 -31.3383 -15.145 -4.28204 4.2483 -15.9104 -2.45483 
13.1681 94.4356 -2.82408 -0.106087 -5.94295 -47.8099 0 0 0 16.8942 5.42614 6.27907 -18.4714 5.36024 11.064 4.09596 7.45465 -3.33141 3.95662 -4.08792 -2.61912 -36.1524 3.0787 -3.77531 -46.9247 9.0139 14.8205 -4.02684 -19.1962 -9.04922 -10.795 0.102939 -1.08937 24.1833 6.54383 17.783 41.9173 12.4145 9.87923 -0.44474 0.979384 22.7662 2.77788 0.131079 5.42001 -3.7959 -21.5061 -1.72655 -1.56326 12.6823 -24.3538 -5.95041 -0.0988671 -0.00472088 0.789967 -1.95705 -2.92769 0.0817454 18.7695 -8.44662 -1.06206 18.7349 36.82 -24.0057 -13.3778 -2.85507 4.04515 -14.9946 -0.310664 
10.4418 94.7884 -0.166225 0.231478 -7.09036 -50.0601 0 0 0 15.3183 4.64907 6.80415 -17.9681 6.27585 11.5511 4.25212 6.89722 -3.44011 4.18835 -3.44809 -2.75144 -37.7931 3.09876 -3.53928 -44.8525 8.27698 13.7582 -4.39326 -20.4467 -10.3079 -10.6725 0.11032 -1.17657 23.82 6.39961 17.5502 44.7881 12.7935 8.49689 0.184182 0.948784 17.3497 3.47271 0.157402 5.19554 -5.3448 -21.2229 -2.30865 -0.963518 16.7922 -24.2504 -5.85424 2.90273 0.1414 1.16383 -3.87539 -4.40587 -1.70749 19.6863 -7.19582 -2.81995 20.8077 38.7991 -16.9886 -11.2207 -1.68146 3.857 -14.3447 2.65945 
7.32044 94.9763 2.44645 0.50674 -8.69799 -52.4933 0 0 0 12.8271 3.95044 7.36674 -16.8705 6.76179 11.8565 4.2219 6.98902 -3.7509 4.52022 -3.40356 -3.1368 -38.1207 3.12391 -3.54599 -43.8426 8.53051 12.3097 -4.60912 -21.2669 -10.8172 -10.4125 0.0566848 -0.62485 23.1033 6.0979 17.0341 48.0794 12.3979 7.3493 1.89413 0.925549 10.8012 2.39274 0.100036 4.67138 -6.37253 -19.5929 -0.855087 -0.995017 21.088 -22.9843 -3.00806 2.48069 0.0600648 1.26734 -4.81372 -4.78578 -3.63686 19.1612 -1.07013 -2.84514 26.2623 34.6285 -12.2713 -6.93542 -0.750807 4.8418 -17.1825 5.72251 
4.40467 95.365 4.78275 0.632941 -10.2067 -54.9312 0 0 0 11.501 3.88016 6.93743 -18.2361 6.45356 11.6807 6.33823 7.02631 -4.27722 3.69886 -3.12116 -2.75701 -35.3705 3.10715 -3.98165 -45.0004 7.58719 10.709 -4.08174 -19.9509 -10.0259 -10.4044 0.131858 -1.44813 24.3405 6.52366 17.6191 49.99 12.6336 5.70439 3.48957 -2.07028 6.04248 1.79294 0.0513402 3.31422 -7.15274 -17.4749 1.30242 -0.872911 23.7379 -23.4909 -3.24107 -2.13682 -0.053436 1.07292 1.14422 -4.62344 -6.2585 17.3685 5.2818 0.336838 33.0864 28.7876 -6.66488 -1.82691 -0.126871 5.09307 -18.0583 4.77276 
1.74583 95.7006 6.88881 0.215336 -11.2281 -57.5464 0 0 0 10.2246 3.99154 6.28037 -18.3552 6.66003 11.0205 6.92929 6.37639 -4.21624 3.40631 -3.10424 -2.45756 -35.3173 3.19513 -4.20514 -43.222 9.85071 7.52926 -4.24077 -20.5983 -8.33404 -10.5462 0.150047 -1.62668 25.0422 6.60943 17.4367 50.7313 13.1671 5.44988 4.36857 -2.00871 2.19099 3.44063 0.0844147 2.90353 -7.53613 -14.8366 3.19977 -0.734056 25.3643 -22.7618 -1.36672 -5.28632 -0.0652329 1.15548 3.15343 -5.13658 -8.90584 14.5897 2.15029 0.0261217 40.3863 31.3679 -3.72552 5.732 0.247076 5.27415 -19.5572 -1.02634 
-0.697644 95.9595 8.66458 0.130009 -11.8995 -60.4607 0 0 0 8.59068 4.07502 5.72301 -17.9856 6.54471 10.1346 7.51744 6.15302 -3.96863 2.89535 -3.49572 -1.90396 -35.4334 3.29098 -4.41284 -40.8458 12.0386 3.00381 -3.97294 -20.1422 -4.30941 -10.3117 0.213975 -2.35983 25.9007 6.8248 17.5641 50.7574 13.7571 3.44586 4.52061 -1.46113 2.53693 4.4907 0.0739299 1.88601 -8.07361 -12.5292 3.59477 -0.925875 25.9574 -19.8104 -0.170532 -8.07398 -0.0107177 1.48987 3.50469 -6.41436 -11.0241 9.9824 0.336813 -0.130328 48.4762 30.7668 -7.22842 11.9713 0.738094 5.17289 -20.5379 -6.63148 
